HIERARCHY
ROOT root
{
	OFFSET 0.000000 0.000000 0.000000
	CHANNELS 6 Xposition Yposition Zposition Zrotation Yrotation Xrotation
	JOINT lhip
	{
		OFFSET 0.058581 -0.082280 -0.017664
		CHANNELS 3 Zrotation Yrotation Xrotation
		JOINT lknee
		{
			OFFSET 0.043451 -0.386469 0.008037
			CHANNELS 3 Zrotation Yrotation Xrotation
			JOINT lankle
			{
				OFFSET -0.014790 -0.426874 -0.037428
				CHANNELS 3 Zrotation Yrotation Xrotation
				JOINT ltoe
				{
					OFFSET 0.041054 -0.060286 0.122042
					CHANNELS 3 Zrotation Yrotation Xrotation
					End Site
					{
						OFFSET 0.000000 0.000000 0.000000
					}
				}
			}
		}
	}
	JOINT rhip
	{
		OFFSET -0.060310 -0.090513 -0.013543
		CHANNELS 3 Zrotation Yrotation Xrotation
		JOINT rknee
		{
			OFFSET -0.043257 -0.383688 -0.004843
			CHANNELS 3 Zrotation Yrotation Xrotation
			JOINT rankle
			{
				OFFSET 0.019056 -0.420046 -0.034562
				CHANNELS 3 Zrotation Yrotation Xrotation
				JOINT rtoe
				{
					OFFSET -0.034840 -0.062106 0.130323
					CHANNELS 3 Zrotation Yrotation Xrotation
					End Site
					{
						OFFSET 0.000000 0.000000 0.000000
					}
				}
			}
		}
	}
	JOINT lowerback
	{
		OFFSET 0.004439 0.124404 -0.038385
		CHANNELS 3 Zrotation Yrotation Xrotation
		JOINT upperback
		{
			OFFSET 0.004488 0.137956 0.026820
			CHANNELS 3 Zrotation Yrotation Xrotation
			JOINT chest
			{
				OFFSET -0.002265 0.056032 0.002855
				CHANNELS 3 Zrotation Yrotation Xrotation
				JOINT lowerneck
				{
					OFFSET -0.013390 0.211636 -0.033468
					CHANNELS 3 Zrotation Yrotation Xrotation
					JOINT upperneck
					{
						OFFSET 0.010113 0.088937 0.050410
						CHANNELS 3 Zrotation Yrotation Xrotation
						End Site
						{
							OFFSET 0.000000 0.000000 0.000000
						}
					}
				}
				JOINT lclavicle
				{
					OFFSET 0.071702 0.114000 -0.018898
					CHANNELS 3 Zrotation Yrotation Xrotation
					JOINT lshoulder
					{
						OFFSET 0.122921 0.045205 -0.019046
						CHANNELS 3 Zrotation Yrotation Xrotation
						JOINT lelbow
						{
							OFFSET 0.255332 -0.015649 -0.022946
							CHANNELS 3 Zrotation Yrotation Xrotation
							JOINT lwrist
							{
								OFFSET 0.265709 0.012698 -0.007375
								CHANNELS 3 Zrotation Yrotation Xrotation
								End Site
								{
									OFFSET 0.000000 0.000000 0.000000
								}
							}
						}
					}
				}
				JOINT rclavicle
				{
					OFFSET -0.082954 0.112472 -0.023707
					CHANNELS 3 Zrotation Yrotation Xrotation
					JOINT rshoulder
					{
						OFFSET -0.113228 0.046853 -0.008472
						CHANNELS 3 Zrotation Yrotation Xrotation
						JOINT relbow
						{
							OFFSET -0.260127 -0.014369 -0.031269
							CHANNELS 3 Zrotation Yrotation Xrotation
							JOINT rwrist
							{
								OFFSET -0.269108 0.006794 -0.006027
								CHANNELS 3 Zrotation Yrotation Xrotation
								End Site
								{
									OFFSET 0.000000 0.000000 0.000000
								}
							}
						}
					}
				}
			}
		}
	}
}
MOTION
Frames: 11
Frame Time: 0.033333
-0.288489 0.270479 0.986974 89.963758 1.099374 87.913493 3.532932 1.534705 -2.644563 -4.076717 -5.673328 12.771618 3.914441 7.308883 -12.089262 0.000000 -0.000000 0.000000 -4.195291 -5.754326 -3.228112 0.906551 -0.977819 14.764698 2.672859 -5.077309 -14.481841 0.000000 -0.000000 0.000000 -0.182311 1.655621 2.369377 1.931120 -3.954465 -1.578480 0.572352 -1.190888 0.100678 0.845533 7.273992 3.913377 -0.289791 3.634712 5.499316 -19.628567 2.955788 0.166559 -64.498135 -10.117267 11.860618 -0.552062 -18.786018 21.036768 -11.462549 3.800761 -3.678719 18.781208 -0.711601 -0.267855 64.011393 7.940783 12.337122 -4.612218 15.415269 -0.375743 12.883370 1.709788 -14.158349 
-0.288621 0.270445 0.986964 89.846147 1.088947 87.970064 3.492862 1.530308 -2.648507 -4.058052 -5.756263 12.661326 3.867963 7.323992 -12.073732 0.000000 -0.000000 0.000000 -3.854348 -5.548462 -3.249170 0.402125 -0.354555 14.543167 2.759178 -5.529695 -14.383710 0.000000 -0.000000 0.000000 -0.091410 1.613918 2.300165 1.819025 -3.825638 -1.690585 0.534534 -1.139247 0.319305 0.978806 7.364125 3.555643 -0.330401 3.585682 5.931999 -19.591477 2.825213 0.126134 -64.534763 -9.931837 12.333176 -0.802620 -18.175354 22.442574 -10.987905 3.479438 -2.261661 18.776988 -0.806447 -0.324900 64.151399 8.045408 12.557287 -4.664416 15.302851 -0.417862 12.573239 1.712242 -13.933534 
-0.288684 0.270383 0.986999 89.855076 1.084315 88.008243 3.479293 1.514028 -2.706505 -4.058452 -5.760974 12.685556 3.903267 7.400218 -11.976516 0.000000 -0.000000 0.000000 -3.835253 -5.541623 -3.322770 0.418368 -0.288187 14.572711 2.707900 -5.662289 -14.286594 0.000000 -0.000000 0.000000 -0.039864 1.609950 2.203009 1.777362 -3.796208 -1.705179 0.430040 -1.198389 0.434304 1.158343 7.686763 3.138463 -0.130468 3.513507 6.647947 -19.605871 2.788241 0.094218 -64.460388 -9.942916 12.527891 -0.946333 -17.712605 23.179729 -11.098599 3.681853 -1.314448 18.969885 -0.823206 -0.205895 64.049471 8.204825 12.590579 -4.641869 15.185831 -0.513996 12.608303 1.724935 -13.817634 
-0.288769 0.270412 0.986968 89.900092 1.086616 87.993754 3.476497 1.551203 -2.698866 -4.065717 -5.681487 12.691545 3.894229 7.399337 -12.046358 0.000000 -0.000000 0.000000 -3.836067 -5.513082 -3.267959 0.439204 -0.254450 14.506185 2.755149 -5.762248 -14.357888 0.000000 -0.000000 0.000000 -0.000513 1.570328 2.277802 1.763450 -3.786577 -1.778557 0.432179 -1.173138 0.526483 1.042855 7.702791 3.043098 -0.091167 3.594212 6.673586 -19.573714 2.774452 0.096776 -64.524587 -9.969444 12.515986 -1.001203 -17.557093 22.965037 -10.701463 3.534881 -1.909992 18.944019 -0.840706 -0.193095 64.063683 8.140789 12.599357 -4.553545 15.160006 -0.530765 12.359602 1.738367 -14.015034 
-0.288775 0.270353 0.986999 89.915751 1.079756 88.007206 3.483825 1.563633 -2.734127 -4.082543 -5.788757 12.713593 3.940345 7.412983 -12.009309 0.000000 -0.000000 0.000000 -3.824580 -5.511988 -3.278963 0.426752 -0.239490 14.498450 2.712068 -5.804041 -14.343880 0.000000 -0.000000 0.000000 -0.000055 1.580808 2.290260 1.774501 -3.778743 -1.780678 0.439959 -1.178854 0.517887 0.983834 7.690217 3.080519 -0.139730 3.619304 6.641122 -19.612483 2.756724 0.093280 -64.523875 -9.993077 12.511718 -1.004572 -17.490213 22.954853 -10.616502 3.495855 -1.996664 18.918435 -0.852663 -0.159614 64.083982 8.075968 12.591333 -4.586931 15.149430 -0.514767 12.354888 1.784042 -14.049704 
-0.288922 0.270321 0.986999 89.973630 1.080930 88.011012 3.485532 1.521706 -2.753239 -4.093576 -5.756129 12.722290 3.899677 7.365811 -12.040159 0.000000 -0.000000 0.000000 -3.827449 -5.529909 -3.291440 0.431822 -0.288269 14.524251 2.699208 -5.798985 -14.353188 0.000000 -0.000000 0.000000 0.037036 1.594909 2.358114 1.771121 -3.779588 -1.790579 0.435628 -1.191088 0.516151 0.935160 7.720342 3.038940 -0.166703 3.640555 6.670969 -19.650288 2.695696 0.114921 -64.510949 -10.017594 12.520519 -0.958110 -17.456439 22.935801 -10.586306 3.323898 -2.024295 18.919669 -0.870631 -0.136814 64.078096 8.003979 12.581003 -4.656952 15.031548 -0.470085 12.298141 1.815833 -13.994390 
-0.289290 0.270386 0.986989 89.945123 1.049690 88.021194 3.436878 1.470136 -2.799941 -4.085462 -5.749195 12.729599 3.934446 7.416345 -11.994912 0.000000 -0.000000 0.000000 -3.853591 -5.450237 -3.321696 0.421346 -0.299551 14.498780 2.702298 -5.824529 -14.309918 0.000000 -0.000000 0.000000 0.077165 1.603289 2.420676 1.736646 -3.732557 -1.766482 0.403215 -1.190246 0.510119 0.920727 7.811338 3.058340 -0.193309 3.703672 6.708496 -19.688642 2.597565 0.192671 -64.456711 -10.088928 12.550118 -0.894967 -17.546394 22.919720 -10.656785 3.178025 -1.935299 18.912645 -0.842944 -0.079025 64.093733 8.015348 12.547873 -4.722066 14.885826 -0.636015 12.393759 1.878321 -14.050525 
-0.289407 0.270371 0.986969 89.941217 1.055271 88.025287 3.440030 1.520549 -2.807371 -4.061305 -5.562624 12.734605 3.912268 7.407689 -12.002671 0.000000 -0.000000 0.000000 -3.848313 -5.445812 -3.356945 0.416498 -0.317022 14.548852 2.741618 -5.792905 -14.352345 0.000000 -0.000000 0.000000 0.125009 1.585862 2.497435 1.729601 -3.708807 -1.774538 0.402909 -1.189084 0.537269 0.853952 7.894411 2.945876 -0.233687 3.803095 6.768955 -19.721702 2.598062 0.141962 -64.471141 -10.099641 12.555562 -0.874019 -17.678844 22.920310 -10.695092 3.219795 -1.874482 18.941497 -0.875997 -0.045678 63.989377 7.989862 12.527946 -4.694262 14.843109 -0.610387 12.518948 1.893909 -13.935889 
-0.289769 0.270408 0.986968 89.905528 1.049964 88.038924 3.438727 1.409104 -2.876883 -4.108643 -5.728992 12.794677 3.942001 7.493163 -11.962811 0.000000 -0.000000 0.000000 -3.855458 -5.401785 -3.415199 0.431783 -0.311634 14.569333 2.726797 -5.800098 -14.300927 0.000000 -0.000000 0.000000 0.164261 1.586497 2.533872 1.720033 -3.679550 -1.745868 0.392452 -1.201413 0.587445 0.819069 7.969020 2.975763 -0.272722 3.886106 6.842995 -19.763709 2.571627 0.101241 -64.470869 -10.159567 12.574555 -0.856370 -17.676546 22.842865 -10.733602 3.264460 -1.930647 18.967532 -0.869726 -0.065672 63.922591 7.995651 12.541000 -4.668441 14.753973 -0.585095 12.505504 1.861163 -13.839647 
-0.289921 0.270298 0.986989 89.904705 1.056878 88.002976 3.447247 1.439382 -2.886562 -4.117648 -5.755992 12.885341 3.963073 7.486602 -12.030169 0.000000 -0.000000 0.000000 -3.833615 -5.411888 -3.340804 0.397691 -0.259712 14.487298 2.738068 -5.784547 -14.340859 0.000000 -0.000000 0.000000 0.188955 1.571053 2.567553 1.716282 -3.726139 -1.607951 0.382623 -1.205610 0.644206 0.779093 7.967027 3.014217 -0.320703 3.934140 6.749616 -19.764916 2.488155 0.119551 -64.508049 -10.232653 12.622143 -0.897831 -17.778447 22.959065 -10.681734 3.473942 -1.884831 18.949192 -0.834390 -0.141297 63.940451 7.995957 12.461270 -4.644967 14.617407 -0.735001 12.511244 1.818356 -13.961405 
-0.290232 0.270356 0.987013 89.886079 1.083030 88.000928 3.464065 1.382235 -2.927260 -4.110724 -5.687054 12.916718 4.037993 7.522958 -11.959765 0.000000 -0.000000 0.000000 -3.823163 -5.368908 -3.345396 0.448149 -0.271367 14.460537 2.708865 -5.852677 -14.296450 0.000000 -0.000000 0.000000 0.245972 1.554280 2.559242 1.741954 -3.758664 -1.497675 0.349312 -1.200218 0.728256 0.786254 7.944076 3.118025 -0.296504 3.885039 6.754835 -19.776421 2.421994 0.131843 -64.532477 -10.305533 12.677767 -0.898914 -17.894385 22.949323 -10.546462 3.573240 -1.849715 18.919069 -0.774234 -0.147578 63.955099 8.062699 12.427708 -4.708351 14.527744 -0.849079 12.382592 1.729831 -13.980025 
